<?xml version="1.0" standalone="no"?>
<!DOCTYPE svg PUBLIC "-//W3C//DTD SVG 20010904//EN"
 "http://www.w3.org/TR/2001/REC-SVG-20010904/DTD/svg10.dtd">
<svg version="1.0" xmlns="http://www.w3.org/2000/svg"
 width="512.000000pt" height="512.000000pt" viewBox="0 0 512.000000 512.000000"
 preserveAspectRatio="xMidYMid meet">
<metadata>
Created by potrace 1.11, written by Peter Selinger 2001-2013
</metadata>
<g transform="translate(0.000000,512.000000) scale(0.100000,-0.100000)"
fill="#000000" stroke="none">
<path d="M2385 5109 c-160 -27 -270 -62 -390 -122 -301 -150 -525 -401 -640
-717 -49 -136 -71 -272 -74 -463 -1 -94 -4 -173 -5 -175 -2 -1 -88 -4 -192 -6
-210 -3 -243 -10 -318 -67 -54 -42 -99 -108 -115 -172 -8 -33 -11 -163 -10
-415 0 -338 2 -371 20 -418 25 -65 84 -133 143 -165 25 -13 46 -26 46 -29 1
-3 2 -294 3 -648 l2 -642 -35 -1 c-108 -1 -145 -15 -167 -60 -17 -36 -226
-880 -225 -909 2 -36 20 -64 52 -83 25 -15 76 -17 479 -17 335 0 457 3 477 12
60 27 59 19 58 756 0 370 2 672 5 671 3 0 33 -10 66 -22 l60 -22 62 -185 c34
-101 71 -196 82 -211 14 -19 45 -34 116 -58 54 -17 104 -31 112 -31 14 0 14
-21 0 -95 -3 -11 -8 -42 -11 -70 -10 -71 -17 -114 -22 -138 -2 -11 -13 -83
-25 -159 -21 -132 -21 -141 -6 -174 30 -62 24 -61 627 -62 597 0 595 0 625 58
19 37 18 53 -19 280 -48 291 -57 352 -54 355 2 1 37 12 78 23 105 29 147 48
165 76 9 13 44 106 78 207 l62 184 63 22 c34 12 63 19 64 15 0 -4 2 -309 3
-679 1 -725 0 -704 55 -736 25 -15 76 -17 480 -17 507 0 501 -1 527 75 8 24
-9 104 -102 475 -61 245 -117 455 -123 467 -22 40 -44 46 -177 52 -20 1 -20 7
-18 629 1 345 2 636 2 647 1 13 18 29 50 47 62 34 116 100 142 173 19 54 20
78 17 439 l-3 381 -26 55 c-33 69 -84 121 -156 156 -55 27 -61 28 -250 30
-107 1 -196 4 -198 6 -2 2 -5 82 -6 178 -5 248 -34 386 -124 576 -123 263
-325 469 -593 603 -85 43 -198 83 -282 100 -30 6 -66 14 -80 17 -43 10 -322
12 -375 3z"/>
</g>
</svg>
